<?xml version="1.0" standalone="no"?><!DOCTYPE svg PUBLIC "-//W3C//DTD SVG 1.1//EN" "http://www.w3.org/Graphics/SVG/1.1/DTD/svg11.dtd"><svg t="1482855732392" class="icon" style="" viewBox="0 0 1024 1024" version="1.1" xmlns="http://www.w3.org/2000/svg" p-id="11675" xmlns:xlink="http://www.w3.org/1999/xlink" width="200" height="200"><defs><style type="text/css"></style></defs><path d="M 870.836 176.985 c 58.959 0 106.758 47.799 106.757 106.757 v 587.372 c 0 58.96 -47.801 106.758 -106.757 106.758 h -710.591 c -58.96 0 -106.758 -47.799 -106.758 -106.758 v -587.372 c 0 -58.96 47.801 -106.757 106.758 -106.757 h 710.591 Z M 160.243 238.592 c -24.937 0 -45.153 20.213 -45.153 45.152 v 587.372 c 0 24.937 20.213 45.153 45.153 45.153 h 710.591 c 24.937 0 45.151 -20.214 45.152 -45.153 v -587.372 c 0 -24.937 -20.213 -45.152 -45.151 -45.152 h -710.591 Z" p-id="11676" fill="#ffffff"></path><path d="M 899.311 949.289 h -222.033 c -7.482 0 -13.536 -6.056 -13.536 -13.537 c 0 -7.482 6.055 -13.537 13.536 -13.537 h 222.033 c 21.364 0 33.551 -25.593 33.551 -65.198 v -43.095 c 0 -7.482 6.054 -13.537 13.537 -13.537 c 7.469 0 13.537 6.054 13.537 13.537 v 43.095 c -0.001 56.05 -22.818 92.272 -60.626 92.272 Z" p-id="11677" fill="#ffffff"></path><path d="M 940.568 766.141 c -5.526 0 -11.049 -2.138 -15.103 -6.167 c -3.821 -3.844 -6.167 -9.365 -6.167 -15.103 c 0 -5.546 2.346 -11.069 6.167 -14.892 c 8.101 -7.87 22.119 -8.079 30.197 -0.207 c 3.844 4.027 6.171 9.551 6.171 15.099 c 0 5.529 -2.326 11.049 -6.171 15.103 c -4.027 4.027 -9.552 6.167 -15.097 6.167 Z" p-id="11678" fill="#ffffff"></path><path d="M 294.156 295.41 c -14.95 0 -27.074 -12.122 -27.074 -27.074 v -175.976 c 0 -14.951 12.122 -27.074 27.074 -27.074 s 27.074 12.122 27.074 27.074 v 175.976 c 0.001 14.952 -12.122 27.074 -27.073 27.074 Z" p-id="11679" fill="#ffffff"></path><path d="M 443.059 295.41 c -14.952 0 -27.074 -12.122 -27.074 -27.074 l 0.001 -175.976 c 0 -14.951 12.122 -27.074 27.074 -27.074 c 14.95 0 27.074 12.122 27.074 27.074 v 175.976 c -0.001 14.952 -12.123 27.074 -27.074 27.074 Z" p-id="11680" fill="#ffffff"></path><path d="M 591.962 295.41 c -14.952 0 -27.074 -12.122 -27.074 -27.074 v -175.976 c 0 -14.951 12.122 -27.074 27.074 -27.074 c 14.951 0 27.074 12.122 27.074 27.074 v 175.976 c 0 14.952 -12.122 27.074 -27.073 27.074 Z" p-id="11681" fill="#ffffff"></path><path d="M 740.865 295.41 c -14.952 0 -27.074 -12.122 -27.074 -27.074 v -175.976 c 0 -14.951 12.122 -27.074 27.074 -27.074 s 27.074 12.122 27.074 27.074 v 175.976 c 0.001 14.952 -12.12 27.074 -27.073 27.074 Z" p-id="11682" fill="#ffffff"></path><path d="M 931.458 682.572 v -340.773 c 0 -3.924 3.175 -7.1 7.1 -7.1 s 7.1 3.175 7.1 7.1 v 340.773 c 0 3.916 -3.175 7.1 -7.1 7.1 s -7.1 -3.184 -7.1 -7.099 Z" p-id="11683" fill="#ffffff"></path></svg>