<?xml version="1.0" standalone="no"?><!DOCTYPE svg PUBLIC "-//W3C//DTD SVG 1.1//EN" "http://www.w3.org/Graphics/SVG/1.1/DTD/svg11.dtd"><svg t="1482855470211" class="icon" style="" viewBox="0 0 1024 1024" version="1.1" xmlns="http://www.w3.org/2000/svg" p-id="3963" xmlns:xlink="http://www.w3.org/1999/xlink" width="200" height="200"><defs><style type="text/css"></style></defs><path d="M363.401 158.456c23.859 0.001 49.077 4.004 74.951 11.899 25.62 7.816 50.731 19.081 74.634 33.48 83.02 50.013 148.522 60.511 188.854 60.511 27.106 0 52.363-4.646 75.124-13.814 0.54-0.182 1.079-0.375 1.614-0.581l91.947 294.83 0.822 2.766c0.271 0.987 0.41 2.105 0.41 3.324 0 7.061-4.876 11.668-9.076 13.482-0.241 0.092-0.482 0.188-0.723 0.285-17.703 7.2-37.899 10.852-60.029 10.852-20.191 0-40.945-3.051-61.684-9.068-21.053-6.107-41.045-14.973-59.424-26.354-62.253-38.538-127.229-58.908-187.902-58.908-41.919 0-80.916 9.55-115.916 28.39-0.068 0.036-0.136 0.072-0.204 0.107l-97.111-311.47-2.078-6.704c-0.089-0.605-0.134-1.226-0.134-1.856 0-4.728 2.368-9.142 6.371-11.945 0.895-0.504 1.794-1.009 2.706-1.517 0.392-0.19 0.781-0.386 1.167-0.589C309.348 164.214 334.81 158.454 363.401 158.456M363.403 118.456c-33.598-0.001-65.831 6.761-94.285 21.71-0.042 0-0.125 0-0.125 0-2.046 1.127-4.007 2.233-5.969 3.339-15.361 9.746-25.546 26.777-25.546 46.124 0 4.049 0.459 7.994 1.336 11.792l2.671 8.619 97.339 312.199 1.879 5.928c5.427 13.419 18.782 22.937 34.353 22.937 5.635 0 10.979-1.232 15.694-3.465 1.711-0.96 3.339-1.879 5.051-2.776 29.826-16.091 62.735-23.7 97.121-23.7 54.013 0 111.681 18.768 166.847 52.919 43.301 26.81 94.198 41.411 142.162 41.411 26.524 0 52.15-4.465 75.1-13.799 0.459-0.148 0.876-0.314 1.295-0.523 19.659-8.389 33.434-27.779 33.434-50.297 0-5.007-0.669-9.871-2.004-14.503l-0.961-3.235-93.081-298.466-0.042 0c-4.675-14.839-18.741-25.67-35.354-25.67-5.802 0-11.229 1.273-16.069 3.61l-0.084-0.062c-19.127 8.087-40.159 11.802-62.322 11.802-53.046 0-112.598-21.27-168.212-54.773C480.863 137.787 420.193 118.458 363.403 118.456L363.403 118.456z" p-id="3964" fill="#ffffff"></path><path d="M160.061 146.335c-3.772 0-7.609 0.548-11.407 1.699-20.453 6.219-31.933 27.59-25.629 47.814l214.297 686.613c5.107 16.428 20.431 26.977 36.979 26.977 3.467 0 6.987-0.463 10.479-1.432l1.92-0.584c19.826-6.594 30.805-27.633 24.668-47.417L197.073 173.329C191.906 156.877 176.608 146.335 160.061 146.335L160.061 146.335z" p-id="3965" fill="#ffffff"></path></svg>