<?xml version="1.0" standalone="no"?><!DOCTYPE svg PUBLIC "-//W3C//DTD SVG 1.1//EN" "http://www.w3.org/Graphics/SVG/1.1/DTD/svg11.dtd"><svg t="1482912579735" class="icon" style="" viewBox="0 0 1024 1024" version="1.1" xmlns="http://www.w3.org/2000/svg" p-id="2010" xmlns:xlink="http://www.w3.org/1999/xlink" width="200" height="200"><defs><style type="text/css"></style></defs><path d="M954.991304 425.182609l-387.33913-333.913043L565.426087 89.043478c-2.226087-2.226087-4.452174-4.452174-6.678261-4.452174-11.130435-8.904348-24.486957-17.808696-42.295652-17.808696l-6.678261 0c-17.808696 0-31.165217 11.130435-40.069565 20.034783-2.226087 2.226087-4.452174 4.452174-8.904348 8.904348L69.008696 425.182609c-28.93913 22.26087-44.521739 42.295652-46.747826 64.556522-2.226087 15.582609 4.452174 28.93913 15.582609 42.295652L40.069565 534.26087c13.356522 15.582609 24.486957 20.034783 60.104348 20.034783l51.2 0 0 302.747826c0 64.556522 37.843478 102.4 100.173913 102.4l151.373913 0L402.921739 654.469565c0-13.356522 4.452174-22.26087 24.486957-22.26087l169.182609 0c15.582609 0 22.26087 2.226087 22.26087 22.26087L618.852174 957.217391l151.373913 0c62.330435 0 100.173913-37.843478 100.173913-97.947826L870.4 552.069565l62.330435 0c24.486957 0 33.391304-2.226087 46.747826-15.582609 13.356522-13.356522 17.808696-28.93913 17.808696-46.747826C999.513043 467.478261 981.704348 442.991304 954.991304 425.182609zM957.217391 509.773913c0 0-4.452174 4.452174-4.452174 4.452174-2.226087 0-11.130435 0-15.582609 0l-100.173913 0 0 345.043478c0 40.069565-20.034783 60.104348-62.330435 60.104348l-95.721739 0-17.808696 0L661.147826 656.695652c0-40.069565-22.26087-62.330435-60.104348-62.330435l-169.182609 0c-40.069565 0-64.556522 22.26087-64.556522 60.104348l0 264.904348-113.530435 0c-42.295652 0-62.330435-20.034783-62.330435-64.556522L191.443478 514.226087l-89.043478 0c-26.713043 0-26.713043-2.226087-31.165217-6.678261L66.782609 505.321739c-6.678261-6.678261-6.678261-11.130435-4.452174-13.356522 0-4.452174 4.452174-15.582609 31.165217-37.843478L483.06087 124.66087c4.452174-2.226087 6.678261-6.678261 11.130435-8.904348 4.452174-4.452174 11.130435-11.130435 15.582609-11.130435l6.678261 0c4.452174 0 11.130435 4.452174 17.808696 11.130435 2.226087 2.226087 4.452174 4.452174 8.904348 6.678261l387.33913 333.913043 2.226087 2.226087c17.808696 11.130435 28.93913 24.486957 28.93913 37.843478C963.895652 500.869565 961.669565 505.321739 957.217391 509.773913z" p-id="2011" fill="#ffffff"></path></svg>