<?xml version="1.0" standalone="no"?><!DOCTYPE svg PUBLIC "-//W3C//DTD SVG 1.1//EN" "http://www.w3.org/Graphics/SVG/1.1/DTD/svg11.dtd"><svg t="1482856090685" class="icon" style="" viewBox="0 0 1024 1024" version="1.1" xmlns="http://www.w3.org/2000/svg" p-id="4361" xmlns:xlink="http://www.w3.org/1999/xlink" width="200" height="200"><defs><style type="text/css"></style></defs><path d="M502.80448 31.9488C633.856 29.0816 716.04224 107.45856 754.176 198.26688c19.02592 45.2608 25.8048 117.71904 8.41728 171.02848-12.32896 37.76512-29.30688 66.99008-50.46272 95.31392-9.03168 9.33888-18.06336 18.69824-27.09504 28.03712-2.99008 2.64192-6.53312 3.584-8.3968 7.4752l0.9216 0c6.84032 7.00416 16.384 11.89888 24.30976 17.75616 13.08672 9.64608 24.33024 21.89312 37.35552 31.76448 3.46112 3.72736 6.88128 7.45472 10.28096 11.20256 8.35584 8.33536 17.1008 15.68768 24.33024 25.23136 9.35936 12.3904 22.44608 22.8352 31.76448 35.49184 23.38816 31.80544 43.60192 64.32768 62.62784 100.92544 11.18208 21.56544 25.55904 45.69088 31.76448 71.02464l0.94208 0c0.18432-2.17088 0.18432-2.64192 0.94208-3.74784l0 0.94208c4.11648 5.18144 4.7104 13.06624 7.4752 19.61984 3.46112 8.33536 5.09952 20.13184 7.4752 28.9792 0 12.45184 3.72736 23.04 3.72736 35.49184 0 37.7856-2.39616 79.95392-24.30976 96.23552-10.67008 7.96672-23.77728 14.86848-38.2976 18.69824-13.6192 3.60448-31.55968 1.86368-47.65696 1.86368l-88.7808 0L322.4576 991.60064l-95.31392 0c-17.18272 0-36.82304 1.98656-51.4048-1.86368-12.06272-3.1744-24.45312-8.37632-33.64864-14.9504-43.88864-31.41632-38.52288-80.75264-38.31808-154.17344l0.94208 0c0 0 0.18432 3.64544 0.9216 1.86368l0-1.86368c4.75136-6.41024 5.98016-15.70816 9.35936-23.36768 5.48864-12.45184 12.4928-25.51808 18.69824-37.376 2.94912-5.61152 4.17792-11.40736 7.4752-16.81408 15.36-25.21088 28.9792-51.712 45.79328-75.69408 14.5408-20.74624 30.63808-40.52992 45.79328-60.74368 5.85728-7.80288 13.66016-16.32256 20.56192-23.36768 3.11296-2.78528 6.22592-5.59104 9.33888-8.3968 8.64256-11.44832 19.39456-21.25824 30.84288-29.9008 5.9392-4.46464 10.81344-11.4688 16.81408-15.872 9.48224-7.02464 19.23072-14.09024 28.95872-20.56192 4.13696-2.72384 10.79296-3.91168 13.08672-8.3968-13.74208-9.09312-25.64096-22.38464-35.49184-35.51232-10.42432-13.86496-21.504-27.66848-30.84288-42.98752-23.22432-38.13376-42.96704-121.79456-26.17344-181.28896 8.9088-31.51872 18.08384-60.35456 33.64864-85.03296 7.82336-12.43136 18.49344-23.1424 27.09504-34.57024 7.68-10.24 17.85856-21.34016 28.03712-28.9792 25.66144-19.23072 53.12512-36.47488 86.89664-47.65696 14.68416-4.85376 30.45376-6.656 45.79328-10.28096C487.75168 32.29696 497.72544 35.1232 502.80448 31.9488L502.80448 31.9488zM502.80448 70.2464c-5.38624 3.15392-20.04992 1.08544-27.07456 2.82624-15.79008 3.85024-30.98624 7.04512-44.87168 13.08672-61.00992 26.46016-100.53632 71.53664-126.1568 133.61152-5.26336 12.77952-6.79936 27.81184-10.28096 42.04544-7.08608 29.10208 0.1024 74.3424 7.4752 96.256 23.59296 69.98016 62.85312 115.73248 128.02048 143.89248 23.53152 10.17856 48.45568 16.83456 83.16928 16.83456l21.504 0c19.3536-4.42368 37.76512-5.40672 54.19008-12.16512 13.6192-5.57056 28.01664-11.9808 40.18176-19.61984 2.3552-1.49504 10.1376-5.85728 11.24352-8.43776-0.34816-0.9216-0.63488-1.86368-0.96256-2.80576 1.57696 0.32768 3.11296 0.63488 4.68992 0.9216 6.4512-2.37568 17.36704-15.48288 22.44608-20.54144 21.58592-21.6064 39.17824-45.48608 52.3264-75.69408 20.84864-47.96416 20.31616-120.64768 0-168.20224C683.97056 131.03104 618.84416 70.0416 502.80448 70.2464L502.80448 70.2464zM642.99008 523.48928c-8.9088 8.25344-22.7328 12.57472-34.59072 17.73568-43.17184 18.82112-101.74464 30.3104-156.0576 14.92992-17.92-5.05856-36.57728-11.53024-51.38432-20.56192-3.19488-1.92512-11.53024-11.01824-16.83456-9.3184-4.7104 1.49504-10.6496 7.61856-14.92992 10.26048-15.58528 9.58464-28.95872 18.39104-42.98752 28.9792l-17.75616 17.73568c-18.2272 13.80352-33.93536 33.09568-47.65696 51.4048-9.23648 12.34944-20.93056 23.71584-29.9008 36.43392-27.58656 39.17824-51.67104 81.69472-73.80992 126.1568-3.31776 6.61504-4.48512 12.73856-7.4752 19.61984-1.9456 4.5056-6.00064 10.19904-7.49568 14.92992l0 28.03712c0 28.5696-1.16736 55.37792 10.28096 71.96672 5.77536 8.35584 19.18976 17.48992 29.9008 20.56192 12.1856 3.4816 30.08512 0.9216 43.9296 0.9216l90.64448 0 393.4208 0 98.0992 0c23.90016 0 44.60544 0.53248 58.88-8.3968 16.5888-10.40384 14.92992-47.26784 14.92992-73.80992 0-9.0112-2.78528-17.12128-2.78528-26.15296-2.90816-10.07616-6.22592-20.33664-11.22304-28.03712-2.74432-4.1984-2.64192-9.07264-4.68992-14.00832-20.8896-50.3808-45.28128-98.16064-74.73152-140.1856-10.28096-14.6432-23.98208-27.09504-34.59072-41.12384-12.06272-15.95392-27.01312-31.86688-42.98752-43.9296l-14.9504-14.9504c-11.65312-8.8064-22.56896-17.53088-34.57024-26.15296C655.81056 532.33664 650.52672 525.94688 642.99008 523.48928L642.99008 523.48928zM642.99008 523.48928" p-id="4362" fill="#ffffff"></path></svg>